# xmcd
#
# Track frame offsets:
# 150
# 16686
# 30221
# 47883
# 65432
# 77318
# 89955
# 104879
# 121415
# 136414
# 150888
# 169448
# 186209
# 206606
# 221643
# 237616
# 251564
# 269749
# 283585
# 300872
# 312345
# 328656
# 341293
#
# Disc length: 4733 seconds
#
#
# Revision: 1
# Processed by: cddbd v1.5.2PL0 Copyright (c) Steve Scherf et al.
# Submitted via: FreeRIP 2.951 
#
DISCID=4c127b17
DTITLE=Chico Rey e Paraná - Ao Vivo - Gravação do DVD - Volume 01 - Ao Vivo - Gravação do DVD - Volume 01
DYEAR=2007
DGENRE=Sertanejo
TTITLE0=Canarinho prisioneiro
TTITLE1=Leão domado
TTITLE2=Volta pra mim
TTITLE3=Você não sabe amar
TTITLE4=Pé de bode Participação especial de Cezar e Paulinho
TTITLE5=Amor rebelde Participação especial de Cezar e Paulinho
TTITLE6=Tá com raiva de mim
TTITLE7=Minha serenata
TTITLE8=Blusa Vermelha
TTITLE9=Um Degrau na escada
TTITLE10=De lá pra cá
TTITLE11=Encanto e magia
TTITLE12=Coração Aberto Participação especial Eduardo Costa
TTITLE13=Tranque a porta e me beija especial Eduardo Costa
TTITLE14=Telefone mudo
TTITLE15=Liguei pra te dizer que te-amo
TTITLE16=Alma transparente
TTITLE17=Operario vida Viola
TTITLE18=Se a casa cair participação especial  Teodoro e Sampaio
TTITLE19=Espinho na cama  participação especial  Teodoro e Sampaio
TTITLE20=Paixão proibida
TTITLE21=Amargurado
TTITLE22=Boate Azul
EXTD=emerson-u2-@superig.com.br
EXTT0=
EXTT1=
EXTT2=
EXTT3=
EXTT4=
EXTT5=
EXTT6=
EXTT7=
EXTT8=
EXTT9=
EXTT10=
EXTT11=
EXTT12=
EXTT13=
EXTT14=
EXTT15=
EXTT16=
EXTT17=
EXTT18=
EXTT19=
EXTT20=
EXTT21=
EXTT22=
PLAYORDER=
